<svg width="779" height="6694" viewBox="0 0 779 6694" fill="none" xmlns="http://www.w3.org/2000/svg">
<path d="M58 179.5L475 0H247.5L58 76V179.5Z" fill="#C1DCB0" fill-opacity="0.2"/>
<path d="M563 283.5V179.5L215 112L58 179.5L563 283.5Z" fill="#D3E6C7" fill-opacity="0.2"/>
<path d="M563.5 283.5L386 247L98.5 284L60 374.5L563.5 283.5Z" fill="#C1DCB0" fill-opacity="0.2"/>
<path d="M185.5 351.5L60 374.5L621 767.5V648L185.5 351.5Z" fill="#D3E6C7" fill-opacity="0.2"/>
<path d="M0 1587L621 767.5L534 706.5L0 1402V1587Z" fill="#C1DCB0" fill-opacity="0.2"/>
<path d="M545 1587H0L85.625 1474H545V1587Z" fill="#D3E6C7" fill-opacity="0.2"/>
<path d="M389 1587H545L233.5 2196H74L389 1587Z" fill="#C1DCB0" fill-opacity="0.2"/>
<path d="M74 2196V2315L779 2314V2196H74Z" fill="#D3E6C7" fill-opacity="0.2"/>
<path d="M119 2628.5L779 2314H529L119 2505V2628.5Z" fill="#C1DCB0" fill-opacity="0.2"/>
<path d="M118 2628.5L339 2523.5H615V2628.5H118Z" fill="#D3E6C7" fill-opacity="0.2"/>
<path d="M58 3162.5L615 2628.5H451L58 3006.91V3162.5Z" fill="#C1DCB0" fill-opacity="0.2"/>
<path d="M148.227 3076L58 3162.5L607 3350V3235L148.227 3076Z" fill="#D3E6C7" fill-opacity="0.2"/>
<path d="M200 4012H60L498.5 3313L607 3350L200 4012Z" fill="#C1DCB0" fill-opacity="0.2"/>
<path d="M61 4012V4131L587 4130V4012H61Z" fill="#D3E6C7" fill-opacity="0.2"/>
<path d="M80 4749L587 4130H428L80 4551V4749Z" fill="#C1DCB0" fill-opacity="0.2"/>
<path d="M80 4749L167 4643H626V4749H80Z" fill="#D3E6C7" fill-opacity="0.2"/>
<path d="M183.5 6694H40.5L418.5 6353L490.5 6413.5L183.5 6694Z" fill="#C1DCB0" fill-opacity="0.2"/>
<path d="M190.5 5049L94 5115.5L511 5353.5V5236.5L190.5 5049Z" fill="#D3E6C7" fill-opacity="0.2"/>
<path d="M94 5115.5V4982L464 4749H625.5L94 5115.5Z" fill="#C1DCB0" fill-opacity="0.2"/>
<path d="M490.5 6292.5V6413.5L14 6013L71 5937L490.5 6292.5Z" fill="#D3E6C7" fill-opacity="0.2"/>
<path d="M14 6013V5853L418.5 5297L511 5353L14 6013Z" fill="#C1DCB0" fill-opacity="0.2"/>
</svg>
