<svg width="1745" height="6767" viewBox="0 0 1745 6767" fill="none" xmlns="http://www.w3.org/2000/svg">
<path d="M14 0V119L719 118V0H14Z" fill="#F1C3C1" fill-opacity="0.6"/>
<path d="M302 297.5L719 118H491.5L302 194V297.5Z" fill="#EBA8A5" fill-opacity="0.6"/>
<path d="M1733.5 687V563L459 230L302 297.5L1733.5 687Z" fill="#F1C3C1" fill-opacity="0.6"/>
<path d="M1733.5 687L1404 597.5L38.5 596.5L0 687H1733.5Z" fill="#EBA8A5" fill-opacity="0.6"/>
<path d="M146 687H0L430.5 971.5L407 848L146 687Z" fill="#F1C3C1" fill-opacity="0.6"/>
<path d="M46 1596L430.5 971.5L358 923.5L46 1450V1596Z" fill="#EBA8A5" fill-opacity="0.6"/>
<path d="M226.5 1595.5H46L103 1503H262.5L226.5 1595.5Z" fill="#F1C3C1" fill-opacity="0.6"/>
<path d="M262.5 1503L226.5 1595.5L613 2262H719L262.5 1503Z" fill="#EBA8A5" fill-opacity="0.6"/>
<path d="M14 2262V2381L719 2380V2262H14Z" fill="#F1C3C1" fill-opacity="0.6"/>
<path d="M1742.5 2949.5L14 2381L261.5 2380.5L1742.5 2840V2949.5Z" fill="#EBA8A5" fill-opacity="0.6"/>
<path d="M1742.5 2949.5L1467.5 2859H38.5L0 2949.5H1742.5Z" fill="#F1C3C1" fill-opacity="0.6"/>
<path d="M557 3683.5L0 2949.5H119L557 3541V3683.5Z" fill="#EBA8A5" fill-opacity="0.6"/>
<path d="M508.094 3619L557 3683.5H96.5V3619H508.094Z" fill="#F1C3C1" fill-opacity="0.6"/>
<path d="M96.5 3683.5L198 3781H267L164 3683.5H96.5Z" fill="#EBA8A5" fill-opacity="0.6"/>
<path d="M553.5 3781V3843.5H220L198 3781H553.5Z" fill="#F1C3C1" fill-opacity="0.6"/>
<path d="M146 4521H14L436 3843.5H553.5L146 4521Z" fill="#EBA8A5" fill-opacity="0.6"/>
<path d="M14 4521V4640L719 4639V4521H14Z" fill="#F1C3C1" fill-opacity="0.6"/>
<path d="M423.5 4852.5L719 4639H591L423.5 4751V4852.5Z" fill="#EBA8A5" fill-opacity="0.6"/>
<path d="M1745 5204.5L423.5 4852.5L523.5 4780L1745 5093V5204.5Z" fill="#F1C3C1" fill-opacity="0.6"/>
<path d="M1745 5204.5L1405.5 5114H38.5L0 5204.5H1745Z" fill="#EBA8A5" fill-opacity="0.6"/>
<path d="M140.5 5204.5H0L521.5 5560.5V5457L140.5 5204.5Z" fill="#F1C3C1" fill-opacity="0.6"/>
<path d="M461 5518L521.5 5560.5L115.5 5809L57 5761L461 5518Z" fill="#EBA8A5" fill-opacity="0.6"/>
<path d="M533.5 6151.5V6272.5L57 5874V5761L533.5 6151.5Z" fill="#F1C3C1" fill-opacity="0.6"/>
<path d="M148 6767H32L463.5 6214L533.5 6272.5L148 6767Z" fill="#EBA8A5" fill-opacity="0.6"/>
</svg>
